<svg class="icon" viewBox="0 0 1024 1024" xmlns="http://www.w3.org/2000/svg" width="200" height="200"><defs><style/></defs><path d="M836.8 608l-3.2-11.2-1.6-6.4-1.6-6.4-1.6-6.4-3.2-6.4-1.6-6.4-3.2-6.4-4.8-11.2-4.8-9.6-4.8-8-4.8-8-3.2-6.4-3.2-6.4-8-11.2-8-12.8-3.2-3.2V480l1.6-4.8 1.6-4.8 1.6-6.4 1.6-4.8v-17.6l-1.6-6.4-1.6-6.4-1.6-6.4-3.2-4.8-3.2-4.8-1.6-4.8-1.6-3.2-4.8-6.4-1.6-1.6v-3.2l-1.6-11.2-1.6-8v-9.6l-3.2-9.6L752 344l-1.6-6.4-1.6-6.4-1.6-6.4-1.6-6.4-1.6-6.4-3.2-6.4-6.4-12.8-3.2-6.4-3.2-6.4-4.8-6.4-3.2-6.4-6.4-6.4-3.2-6.4-6.4-6.4-4.8-4.8-6.4-6.4-6.4-4.8-3.2-3.2-3.2-3.2-8-4.8-8-4.8-9.6-4.8-8-4.8-9.6-3.2-9.6-4.8-9.6-3.2-9.6-3.2-9.6-1.6-9.6-3.2-9.6-1.6L568 184h-9.6l-9.6-1.6h-40l-9.6 1.6-9.6 1.6-9.6 1.6-9.6 1.6-9.6 1.6-9.6 3.2-8 3.2-8 3.2-9.6 3.2-8 3.2-6.4 4.8-8 3.2-6.4 4.8-6.4 4.8-6.4 6.4-8 6.4-6.4 8-8 8-6.4 6.4-4.8 8-6.4 6.4-4.8 8-1.6 3.2-3.2 3.2-4.8 8-3.2 6.4-3.2 6.4-3.2 6.4-3.2 6.4-1.6 6.4-1.6 6.4-3.2 6.4-3.2 9.6-1.6 11.2-1.6 8v20.8l-3.2 3.2-1.6 3.2-1.6 1.6-1.6 3.2-1.6 6.4-1.6 4.8v14.4L288 432l-3.2 6.4-1.6 4.8-1.6 4.8-1.6 4.8-1.6 4.8v11.2l1.6 3.2v4.8l1.6 3.2-1.6 1.6-6.4 4.8-8 8-6.4 4.8-4.8 3.2-3.2 4.8-3.2 1.6-4.8 6.4-6.4 6.4-4.8 6.4-4.8 8-6.4 6.4-4.8 8-3.2 8-4.8 8-3.2 8-3.2 6.4-3.2 8-1.6 6.4-1.6 8-3.2 6.4v6.4l-1.6 6.4-1.6 6.4V664l1.6 8 1.6 3.2v4.8l1.6 3.2 1.6 3.2 1.6 4.8h1.6l1.6 1.6v1.6h1.6l4.8-1.6h6.4l3.2-1.6 4.8-3.2 4.8-3.2 3.2-3.2 4.8-3.2 3.2-4.8 3.2-3.2 3.2-4.8 1.6-3.2 1.6-3.2 3.2-6.4 1.6-1.6 1.6-1.6v-3.2h1.6v-1.6h1.6v1.6h1.6l1.6 8 1.6 6.4 3.2 6.4 3.2 6.4 1.6 6.4 3.2 6.4 3.2 4.8 3.2 4.8 3.2 4.8 3.2 4.8 6.4 8 6.4 8 4.8 4.8 6.4 4.8 4.8 4.8 8 6.4h1.6l1.6 1.6v1.6h-3.2l-4.8 1.6H312l-4.8 1.6h-4.8l-3.2 1.6-4.8 1.6-3.2 1.6-3.2 1.6h-3.2l-1.6 3.2H280l-1.6 3.2-3.2 3.2-1.6 1.6-1.6 1.6-1.6 4.8-1.6 3.2v3.2l-1.6 3.2v20.8l1.6 4.8 1.6 1.6 1.6 3.2 1.6 1.6 1.6 1.6 1.6 1.6 1.6 3.2 6.4 3.2 4.8 3.2 4.8 3.2 6.4 1.6 6.4 3.2 8 1.6 6.4 1.6 8 1.6 8 1.6 8 1.6h9.6l16 3.2h54.4l6.4-1.6h6.4l4.8-1.6 9.6-1.6 6.4-1.6 6.4-1.6 11.2-4.8 6.4-1.6 4.8-1.6 8-4.8 8-4.8 4.8-3.2 4.8-3.2h6.4l4.8 1.6h17.6l3.2 1.6h3.2l4.8 1.6 4.8 1.6 9.6 3.2 11.2 4.8 9.6 1.6 9.6 3.2 11.2 1.6 9.6 1.6 11.2 1.6 9.6 1.6h9.6l9.6 1.6H688l9.6-1.6h8l8-1.6 8-1.6 8-1.6 8-1.6 3.2-1.6 3.2-1.6 6.4-1.6 6.4-3.2 4.8-3.2 6.4-1.6 3.2-3.2 3.2-3.2 1.6-1.6 3.2-3.2 3.2-4.8v-1.6l1.6-1.6V800l1.6-3.2v-8l-1.6-3.2v-3.2l-1.6-1.6-1.6-3.2-3.2-3.2-1.6-3.2-3.2-1.6-6.4-6.4-6.4-4.8-6.4-3.2-8-4.8-16-8-3.2-1.6-1.6-1.6h-1.6l8-8 4.8-4.8 1.6-3.2 6.4-8 4.8-8 4.8-6.4 3.2-6.4 6.4-14.4 4.8-11.2 1.6-8 1.6-3.2 1.6-1.6 1.6-1.6h1.6l4.8 9.6 3.2 8 3.2 3.2 1.6 4.8 3.2 4.8 3.2 4.8 3.2 3.2 1.6 1.6 1.6 1.6h1.6l1.6 1.6 3.2 1.6h6.4l3.2-1.6h1.6l1.6-1.6 3.2-3.2 1.6-1.6 1.6-1.6 1.6-3.2 1.6-3.2 1.6-3.2 1.6-3.2 1.6-8 1.6-8 1.6-9.6v-30.4z"/><path d="M513.6 20.8c-272 0-494.4 222.4-494.4 494.4S241.6 1008 513.6 1008 1008 785.6 1008 513.6 785.6 20.8 513.6 20.8zm0 955.2C259.2 976 52.8 768 52.8 513.6s208-462.4 462.4-462.4S976 259.2 976 513.6 768 976 513.6 976z"/></svg>