<svg class="icon" viewBox="0 0 1024 1024" xmlns="http://www.w3.org/2000/svg" width="200" height="200"><defs><style/></defs><path d="M689.9 742l27.893-27.893V862.75c0 17.94-14.602 32.532-32.542 32.532H192.614c-17.94 0-32.542-14.592-32.542-32.532V212.1c0-17.94 14.602-32.532 32.542-32.532h104.151l-3.758 16.957c-.317 1.423-.47 2.724-.47 3.953v74.363c0 10.25 8.335 18.585 18.585 18.585h255.61c10.251 0 18.597-8.335 18.597-18.585v-74.363c0-1.24-.164-2.53-.482-3.953l-3.758-16.957H685.25c17.941 0 32.533 14.592 32.533 32.532v220.99l-27.894 27.893V212.101a4.659 4.659 0 00-4.649-4.649h-72.028v67.39c0 25.62-20.848 46.479-46.48 46.479h-255.61c-25.63 0-46.48-20.849-46.48-46.48v-67.389h-72.028a4.659 4.659 0 00-4.649 4.65V862.76a4.659 4.659 0 004.65 4.649H685.25a4.659 4.659 0 004.649-4.649V742zM326.44 275.969h224.973c9.042 0 16.363-7.322 16.363-16.364v-65.443c0-9.042-7.321-16.364-16.363-16.364h-61.348c0-27.105-23.03-49.08-51.415-49.08-28.406 0-51.425 21.975-51.425 49.08H326.45c-9.042 0-16.353 7.322-16.353 16.364v65.443c0 9.032 7.311 16.364 16.343 16.364zm73.882 291.543l-88.105-88.095-36.199 36.199 124.304 124.303 201.533-201.533-36.198-36.199-165.335 165.325zm457.41-74.803l-63.293-63.304c-9.319-9.308-25.815-7.956-36.803 3.031l-34.847 34.847 97.076 97.065 34.836-34.847c10.998-10.977 12.34-27.484 3.031-36.792zm-151.112-9.257l97.065 97.065L572.221 811.99c-1.065 1.065-4.003 4.014-8.14 5.059-.482.225-.963.42-1.454.583l-120.802 38.492c-3.379 1.076-6.779.39-8.98-1.822-2.202-2.212-2.898-5.612-1.833-8.991l38.502-120.78c.164-.503.359-.984.584-1.455 1.055-4.147 3.994-7.086 5.069-8.15L706.62 483.45zM542.36 804.537l-59.76-59.76-16.026 50.33 25.467 25.466 50.32-16.036zm160.533-282.5c-3.44-3.441-9.011-3.441-12.442 0L510.003 702.483c-3.44 3.43-3.44 9.012 0 12.442 3.43 3.43 9.001 3.43 12.442 0l180.45-180.45c3.44-3.44 3.44-9.01 0-12.44z"/></svg>