<svg id="组_2" data-name="组 2" xmlns="http://www.w3.org/2000/svg" xmlns:xlink="http://www.w3.org/1999/xlink" width="46" height="46" viewBox="0 0 46 46">
  <defs>
    <linearGradient id="linear-gradient" y1="0.5" x2="1" y2="0.5" gradientUnits="objectBoundingBox">
      <stop offset="0" stop-color="#ea584b"/>
      <stop offset="1" stop-color="#e72c21"/>
    </linearGradient>
  </defs>
  <circle id="椭圆_1" data-name="椭圆 1" cx="23" cy="23" r="23" fill="url(#linear-gradient)"/>
  <g id="组_1" data-name="组 1">
    <path id="路径_1" data-name="路径 1" d="M25.97,23.37a1.361,1.361,0,0,0-1.08.44,1.558,1.558,0,0,0-.41,1.13,1.456,1.456,0,0,0,.41,1.1,1.379,1.379,0,0,0,1.07.42,1.416,1.416,0,0,0,1.08-.42,1.578,1.578,0,0,0,.4-1.13,1.527,1.527,0,0,0-.41-1.12A1.416,1.416,0,0,0,25.97,23.37Z" fill="#fff"/>
    <path id="路径_2" data-name="路径 2" d="M29.06,12.69h-.72v-.51a.69.69,0,0,0-1.38,0v.51H19.04v-.51a.69.69,0,0,0-1.38,0v.51h-.72a4.987,4.987,0,0,0-4.98,4.98V29.54a4.987,4.987,0,0,0,4.98,4.98H29.05a4.987,4.987,0,0,0,4.98-4.98V17.66A4.976,4.976,0,0,0,29.06,12.69ZM22.39,29.8H17.36a2.692,2.692,0,0,1,.73-1.89,9.3,9.3,0,0,1,1.65-1.31,7.235,7.235,0,0,0,1.04-.83,1.731,1.731,0,0,0,.5-1.18,1.149,1.149,0,0,0-.34-.91,1.464,1.464,0,0,0-.99-.3,1.212,1.212,0,0,0-1.04.46,2.137,2.137,0,0,0-.39,1.32H17.4a2.764,2.764,0,0,1,.71-1.94,2.415,2.415,0,0,1,1.88-.78,2.466,2.466,0,0,1,1.73.6,2.012,2.012,0,0,1,.67,1.55,2.457,2.457,0,0,1-.72,1.7,10.531,10.531,0,0,1-1.51,1.16,3.492,3.492,0,0,0-1.41,1.36H22.4v.99Zm5.53-.96a2.323,2.323,0,0,1-2,1.1,2.115,2.115,0,0,1-2.4-1.96H24.6a1.212,1.212,0,0,0,1.33,1.05,1.391,1.391,0,0,0,1.21-.74,3.232,3.232,0,0,0,.44-1.74c0-.04-.01-.08-.01-.13h-.04a2.121,2.121,0,0,1-.78.71,2.342,2.342,0,0,1-1.01.22,2.26,2.26,0,0,1-1.73-.69,2.392,2.392,0,0,1-.62-1.72,2.3,2.3,0,0,1,.73-1.77,2.52,2.52,0,0,1,1.82-.71,2.351,2.351,0,0,1,2.04.96A4.3,4.3,0,0,1,28.67,26,5.211,5.211,0,0,1,27.92,28.84ZM13.39,17.17a3.6,3.6,0,0,1,3.56-3.11h.72v.41a.69.69,0,0,0,1.38,0v-.41h7.92v.41a.69.69,0,0,0,1.38,0v-.41h.72a3.609,3.609,0,0,1,3.56,3.11Z" fill="#fff"/>
  </g>
</svg>
