<svg id="组_3" data-name="组 3" xmlns="http://www.w3.org/2000/svg" xmlns:xlink="http://www.w3.org/1999/xlink" width="46" height="46" viewBox="0 0 46 46">
  <defs>
    <linearGradient id="linear-gradient" y1="0.5" x2="1" y2="0.5" gradientUnits="objectBoundingBox">
      <stop offset="0" stop-color="#ea584b"/>
      <stop offset="1" stop-color="#e72c21"/>
    </linearGradient>
  </defs>
  <circle id="椭圆_2" data-name="椭圆 2" cx="23" cy="23" r="23" fill="url(#linear-gradient)"/>
  <path id="路径_3" data-name="路径 3" d="M30.57,12.23H17.3a4.289,4.289,0,0,0-4.29,4.29V29.47a4.289,4.289,0,0,0,4.29,4.29H30.57a4.289,4.289,0,0,0,4.29-4.29V16.53A4.3,4.3,0,0,0,30.57,12.23ZM16,18.23a.881.881,0,0,1,.88-.88h8.13a.88.88,0,1,1,0,1.76H16.88A.869.869,0,0,1,16,18.23Zm8.6,4.5a.881.881,0,0,1-.88.88h-6.5a.88.88,0,1,1,0-1.76h6.5A.881.881,0,0,1,24.6,22.73Zm-3.35,5.18H17.17a.88.88,0,1,1,0-1.76h4.08a.88.88,0,1,1,0,1.76Zm10.29-7.14a.893.893,0,0,1-.56.2.88.88,0,0,1-.69-.33l-1.3-1.6v8.28A2.99,2.99,0,1,1,26,24.33a2.907,2.907,0,0,1,1.22.27V16.56a.881.881,0,0,1,.88-.88.819.819,0,0,1,.41.12.351.351,0,0,1,.08.05.539.539,0,0,1,.16.14c.02.02.04.02.05.04l2.85,3.5A.857.857,0,0,1,31.54,20.77Z" fill="#fff"/>
</svg>
