<svg id="组_7" data-name="组 7" xmlns="http://www.w3.org/2000/svg" xmlns:xlink="http://www.w3.org/1999/xlink" width="46" height="46" viewBox="0 0 46 46">
  <defs>
    <linearGradient id="linear-gradient" y1="0.5" x2="1" y2="0.5" gradientUnits="objectBoundingBox">
      <stop offset="0" stop-color="#ea584b"/>
      <stop offset="1" stop-color="#e72c21"/>
    </linearGradient>
  </defs>
  <circle id="椭圆_4" data-name="椭圆 4" cx="23" cy="23" r="23" fill="url(#linear-gradient)"/>
  <g id="组_6" data-name="组 6">
    <path id="路径_7" data-name="路径 7" d="M26.21,27.84a.975.975,0,0,0,1.04,1.65,8.01,8.01,0,1,0-10.89-2.31.972.972,0,0,0,1.61-1.09,5.99,5.99,0,0,1-1.03-3.39,6.06,6.06,0,1,1,9.27,5.14Z" fill="#fff"/>
    <path id="路径_8" data-name="路径 8" d="M23,10.3a12.4,12.4,0,0,0-9.22,20.69.97.97,0,1,0,1.44-1.3,10.448,10.448,0,1,1,10.95,2.97.973.973,0,0,0,.3,1.9,1.047,1.047,0,0,0,.3-.05A12.4,12.4,0,0,0,23,10.3Z" fill="#fff"/>
    <path id="路径_9" data-name="路径 9" d="M25.97,24.7a1.028,1.028,0,0,0-.3-1.41,13.518,13.518,0,0,1-2.16-3.13,1.08,1.08,0,0,0-.24-.28.877.877,0,0,0-.82-.61.908.908,0,0,0-.88.94v9.34a3.265,3.265,0,1,0,1.72,3.37,1,1,0,0,0,.05-.26V23.7A5.559,5.559,0,0,0,24.57,25a1,1,0,0,0,.55.16A.981.981,0,0,0,25.97,24.7Z" fill="#fff"/>
  </g>
</svg>
