<?xml version="1.0" standalone="no"?><!DOCTYPE svg PUBLIC "-//W3C//DTD SVG 1.1//EN" "http://www.w3.org/Graphics/SVG/1.1/DTD/svg11.dtd"><svg t="1587976233323" class="icon" viewBox="0 0 1024 1024" version="1.1" xmlns="http://www.w3.org/2000/svg" p-id="5296" width="64" height="64" xmlns:xlink="http://www.w3.org/1999/xlink"><defs><style type="text/css"></style></defs><path d="M732.823704 782.222222H172.183704c-24.272593 0-44.088889-19.816296-44.088889-44.088889v-452.266666c0-24.272593 19.816296-44.088889 44.088889-44.088889H732.918519c24.272593 0 44.088889 19.816296 44.088888 44.088889v452.266666c-0.094815 24.272593-19.816296 44.088889-44.183703 44.088889zM172.183704 284.444444c-0.758519 0-1.422222 0.663704-1.422223 1.422223v452.266666c0 0.758519 0.663704 1.422222 1.422223 1.422223H732.918519c0.758519 0 1.422222-0.663704 1.422222-1.422223v-452.266666c0-0.758519-0.663704-1.422222-1.422222-1.422223H172.183704z" p-id="5297"></path><path d="M855.703704 717.748148c-8.343704 0-16.592593-2.56-23.608889-7.585185l-88.651852-61.534815c-5.783704-3.982222-9.197037-10.524444-9.197037-17.540741V392.912593c0-7.016296 3.413333-13.558519 9.197037-17.540741l88.651852-61.534815c12.041481-8.628148 27.875556-9.955556 41.244444-3.508148 13.179259 6.352593 21.902222 19.247407 22.660741 33.754074 0 0.758519 0.094815 1.422222 0.094815 2.180741v331.567407c0 0.758519 0 1.422222-0.094815 2.180741-0.758519 14.506667-9.386667 27.401481-22.660741 33.754074-5.594074 2.654815-11.567407 3.982222-17.635555 3.982222z m1.232592-42.287407z m-80.023703-55.466667l76.42074 53.096296V351.004444l-76.42074 53.096297v215.893333z" p-id="5298"></path><path d="M271.454815 407.04a44.752593 44.468148 0 1 0 89.505185 0 44.752593 44.468148 0 1 0-89.505185 0Z" p-id="5299"></path></svg>