<svg class="icon" viewBox="0 0 1024 1024" xmlns="http://www.w3.org/2000/svg" width="200" height="200"><defs><style/></defs><path d="M645.856 506.144c-21.632-4.224-11.136-15.84-11.136-15.84s21.184-34.912-4.192-60.288c-31.424-31.424-107.808 4-107.808 4-29.184 9.056-21.44-4.128-17.312-26.56 0-26.432-9.056-71.2-86.752-44.768-77.632 26.56-144.288 119.68-144.288 119.68-46.368 61.856-40.224 109.664-40.224 109.664 11.584 105.536 123.744 134.528 210.944 141.376 91.776 7.2 215.616-31.648 253.184-111.392 37.536-79.936-30.72-111.552-52.416-115.872M451.872 703.648c-91.104 4.256-164.736-41.408-164.736-102.24 0-60.864 73.632-109.664 164.736-113.856 91.168-4.224 164.96 33.344 164.96 94.08-.032 60.8-73.792 117.856-164.96 122.016m-18.176-176c-91.648 10.72-81.056 96.544-81.056 96.544s-.928 27.168 24.576 41.024c53.632 29.024 108.832 11.456 136.736-24.576 27.872-36.032 11.488-123.648-80.256-112.992m-23.104 120.448c-17.12 1.984-30.912-7.872-30.912-22.176 0-14.24 12.256-29.184 29.376-30.944 19.648-1.856 32.448 9.44 32.448 23.744-.032 14.272-13.888 27.456-30.912 29.376m54.016-46.016c-5.792 4.32-12.928 3.744-15.968-1.472-3.2-5.056-1.984-13.184 3.872-17.44 6.784-5.056 13.856-3.616 16.896 1.472 3.04 5.184.832 12.96-4.8 17.44m225.856-133.12c7.392 0 13.664-5.472 14.72-12.576.128-.544.192-.992.192-1.6 11.2-100.608-82.464-83.296-82.464-83.296-8.32 0-14.976 6.72-14.976 15.104 0 8.256 6.656 14.976 14.976 14.976 67.264-14.848 52.416 52.416 52.416 52.416.032 8.32 6.816 14.976 15.136 14.976m-10.912-175.616c-32.352-7.584-65.664-1.024-75.008.736-.704.064-1.408.736-2.048.864-.32.064-.544.416-.544.416-9.184 2.592-15.936 11.104-15.936 21.184 0 12 9.728 21.856 21.856 21.856 0 0 11.776-1.568 19.776-4.704 7.904-3.2 74.976-2.4 108.288 53.536 18.176 40.832 8 68.128 6.72 72.544 0 0-4.32 10.592-4.32 21.056 0 12.064 9.728 19.648 21.76 19.648 10.08 0 18.528-1.376 20.992-18.4h.128c35.776-119.232-43.744-175.232-101.664-188.736M512 0C229.216 0 0 229.248 0 512c0 282.784 229.216 512 512 512 282.752 0 512-229.216 512-512C1024 229.248 794.752 0 512 0m0 994.368C245.6 994.368 29.632 778.4 29.632 512S245.6 29.664 512 29.664 994.368 245.632 994.368 512c0 266.4-215.968 482.368-482.368 482.368"/></svg>