<svg class="icon" viewBox="0 0 1024 1024" xmlns="http://www.w3.org/2000/svg" width="200" height="200"><defs><style/></defs><path d="M724.48 517.12c2.56-5.12 2.56-10.24 5.12-15.36 7.68-38.4 5.12-69.12-15.36-94.72-17.92-25.6-46.08-38.4-87.04-40.96h-10.24c-7.68 0-15.36 0-23.04 2.56l-92.16 23.04c2.56-15.36 2.56-30.72 2.56-46.08-2.56-51.2-38.4-87.04-89.6-87.04h-2.56c-25.6 0-56.32 2.56-84.48 15.36C192 332.8 89.6 435.2 25.6 576c-40.96 89.6-30.72 176.64 30.72 245.76 28.16 30.72 61.44 58.88 99.84 79.36 84.48 48.64 179.2 58.88 250.88 61.44h10.24c12.8-2.56 23.04-2.56 35.84-2.56 28.16-2.56 56.32-5.12 84.48-10.24 117.76-23.04 204.8-74.24 268.8-153.6 53.76-69.12 53.76-128 43.52-161.28-17.92-38.4-46.08-87.04-125.44-117.76zm35.84 245.76c-58.88 76.8-143.36 117.76-238.08 135.68-38.4 7.68-76.8 10.24-115.2 12.8C327.68 908.8 248.32 896 179.2 857.6c-30.72-17.92-61.44-43.52-87.04-69.12-51.2-56.32-51.2-122.88-20.48-189.44 58.88-128 151.04-222.72 281.6-279.04 20.48-7.68 43.52-10.24 64-10.24h2.56c23.04 0 38.4 15.36 38.4 38.4 0 20.48-2.56 38.4-5.12 58.88-5.12 28.16 5.12 43.52 28.16 43.52 5.12 0 10.24 0 17.92-2.56 38.4-10.24 74.24-20.48 112.64-30.72h17.92c48.64 2.56 64 28.16 53.76 74.24-2.56 7.68-5.12 12.8-5.12 17.92-7.68 28.16-2.56 43.52 25.6 53.76h2.56c97.28 38.4 120.32 112.64 53.76 199.68zm-10.24-540.16c-12.8 0-25.6 10.24-25.6 25.6 0 12.8 10.24 25.6 25.6 25.6 7.68 0 69.12 5.12 81.92 74.24 2.56 12.8 12.8 20.48 25.6 20.48h5.12c12.8-2.56 23.04-15.36 20.48-30.72-20.48-89.6-97.28-115.2-133.12-115.2zm5.12-161.28c-12.8-2.56-28.16 7.68-28.16 20.48-2.56 12.8 7.68 28.16 20.48 28.16 10.24 2.56 240.64 35.84 222.72 238.08 0 12.8 10.24 25.6 23.04 28.16h2.56c12.8 0 23.04-10.24 25.6-23.04C1039.36 153.6 855.04 74.24 755.2 61.44z"/></svg>