<svg class="icon" viewBox="0 0 1025 1024" xmlns="http://www.w3.org/2000/svg" width="200.195" height="200"><defs><style/></defs><path d="M693.515 347.246c11.75 0 23.383.86 34.914 2.149C697.062 203.307 540.865 94.766 362.587 94.766 163.271 94.766 0 230.617 0 403.131c0 99.577 54.321 181.349 145.093 244.77l-36.267 109.07 126.752-63.556c45.354 8.977 81.75 18.201 127.011 18.201 11.38 0 22.661-.561 33.85-1.434-7.087-24.242-11.19-49.637-11.19-75.973 0-158.41 136.033-286.963 308.267-286.963zM498.56 248.94c27.3 0 45.385 17.963 45.385 45.246 0 27.175-18.084 45.383-45.385 45.383-27.181 0-54.448-18.208-54.448-45.383 0-27.291 27.268-45.246 54.448-45.246zm-253.765 90.628c-27.175 0-54.601-18.208-54.601-45.388 0-27.285 27.427-45.241 54.601-45.241 27.176 0 45.262 17.956 45.262 45.241.002 27.18-18.086 45.388-45.262 45.388zm779.65 290.276c0-144.962-145.059-263.118-307.982-263.118-172.52 0-308.394 118.156-308.394 263.118 0 145.213 135.875 263.124 308.394 263.124 36.107 0 72.53-9.105 108.79-18.196l99.454 54.46-27.267-90.61c72.78-54.605 127.005-127.008 127.005-208.778zM616.471 584.48c-18.055 0-36.267-17.962-36.267-36.286 0-18.061 18.214-36.255 36.267-36.255 27.428 0 45.388 18.193 45.388 36.255.001 18.324-17.96 36.286-45.388 36.286zm199.443 0c-17.929 0-36.014-17.962-36.014-36.286 0-18.061 18.087-36.255 36.014-36.255 27.176 0 45.384 18.193 45.384 36.255 0 18.324-18.21 36.286-45.384 36.286z"/></svg>